<?xml version="1.0" standalone="no"?><!DOCTYPE svg PUBLIC "-//W3C//DTD SVG 1.1//EN" "http://www.w3.org/Graphics/SVG/1.1/DTD/svg11.dtd"><svg t="1558076001607" class="icon" style="" viewBox="0 0 1024 1024" version="1.1" xmlns="http://www.w3.org/2000/svg" p-id="6830" xmlns:xlink="http://www.w3.org/1999/xlink" width="32" height="32"><defs><style type="text/css"></style></defs><path d="M967.509333 0H56.490667C25.301333 0 0 25.301333 0 56.490667v911.018666C0 998.741333 25.301333 1024 56.490667 1024h490.410666v-396.544H413.397333v-154.496h133.504V358.826667c0-132.224 80.810667-204.16 198.784-204.16 56.533333 0 105.130667 4.138667 119.296 6.016v138.24h-81.962666c-64 0-76.458667 30.762667-76.458667 75.562666v98.602667h152.917333l-19.84 154.88H706.56V1024h260.906667c31.274667 0 56.533333-25.258667 56.533333-56.490667V56.490667C1024 25.301333 998.741333 0 967.509333 0" fill="#e6e6e6" p-id="6831"></path></svg>